#N canvas 2 47 1436 832 10;
#X declare -lib aubio;
#X obj 14 14 declare -lib aubio;
#X obj 165 51 adc~;
#X obj 178 146 bng 60 250 50 0 empty empty empty 17 7 0 10 -262144
-1 -1;
#X obj 433 286 bpm;
#X text 306 89 IBT SMC Porto;
#X obj 178 233 realtime;
#X obj 178 211 t b b;
#X floatatom 178 271 5 0 0 0 - - -, f 5;
#X obj 432 323 cyclone/mean;
#X obj 430 362 history;
#X floatatom 178 311 5 0 0 0 - - -, f 5;
#X floatatom 178 352 8 0 0 0 - - -, f 8;
#X obj 178 456 s timeMeasure;
#X obj 178 289 zexy/mavg 12;
#X obj 178 330 * 4;
#X obj 76 326 + 1;
#X obj 113 325 % 4;
#X floatatom 26 362 5 0 0 0 - - -, f 5;
#X obj 39 326 f 0;
#X msg 39 274 0;
#X obj 26 381 route 0;
#X obj 26 403 t b;
#X obj 26 425 s bangMeasure;
#X obj 8 425 bng 15 250 50 0 empty empty empty 17 7 0 10 -262144 -1
-1;
#X obj 593 154 ctlin;
#X floatatom 614 205 5 0 0 0 - - -, f 5;
#X floatatom 549 205 5 0 0 0 - - -, f 5;
#X floatatom 679 212 5 0 0 0 - - -, f 5;
#X obj 814 127 notein;
#X floatatom 844 193 5 0 0 0 - - -, f 5;
#X floatatom 883 163 5 0 0 0 - - -, f 5;
#X floatatom 785 172 5 0 0 0 - - -, f 5;
#X obj 39 231 notein;
#X floatatom 131 286 5 1 16 0 - - -, f 5;
#X obj 39 253 route 0;
#X obj 178 88 aubiotempo~ 0.5;
#X connect 1 0 35 0;
#X connect 1 1 35 0;
#X connect 2 0 6 0;
#X connect 5 0 7 0;
#X connect 6 0 5 0;
#X connect 6 0 18 0;
#X connect 6 1 5 1;
#X connect 7 0 13 0;
#X connect 10 0 14 0;
#X connect 11 0 12 0;
#X connect 13 0 10 0;
#X connect 14 0 11 0;
#X connect 15 0 16 0;
#X connect 16 0 18 1;
#X connect 17 0 20 0;
#X connect 18 0 15 0;
#X connect 18 0 17 0;
#X connect 19 0 18 0;
#X connect 20 0 21 0;
#X connect 21 0 22 0;
#X connect 21 0 23 0;
#X connect 24 0 26 0;
#X connect 24 1 25 0;
#X connect 24 2 27 0;
#X connect 28 0 31 0;
#X connect 28 1 29 0;
#X connect 28 2 30 0;
#X connect 32 0 34 0;
#X connect 33 0 16 1;
#X connect 33 0 14 1;
#X connect 34 0 19 0;
#X connect 35 0 2 0;
