#N canvas 2 47 1436 832 10;
#X obj 250 437 s b_bass;
#X text 236 377 Classification;
#X obj 220 290 r~ audioin;
#X obj 448 206 r~ audioin;
#X text 239 312 Feature Computation;
#X text 487 376 Classification;
#X obj 471 290 r~ audioin;
#X text 490 311 Feature Computation;
#X text 748 374 Classification;
#X obj 732 271 r~ audioin;
#X obj 808 226 r~ audioin;
#X text 751 309 Feature Computation;
#X text 815 253 Onset Detection Hihat;
#X obj 732 434 s b_hihat;
#X obj 501 436 s b_snare;
#X obj 808 271 onsets_aubio_hihat_fast;
#X obj 471 330 compute_features_filter_snare_fast;
#X obj 220 331 compute_features_filter_kick_fast;
#X obj 732 328 compute_features_filter_hihat_fast;
#X obj 220 395 detect_drum_classes_kick_fast;
#X obj 471 394 detect_drum_classes_snare_fast;
#X obj 732 392 detect_drum_classes_hihat_fast;
#X obj 448 249 onsets_aubio_bass_snare_fast;
#X text 455 231 Onset Detection Kick&Snare;
#X obj 245 111 s~ audioin;
#X obj 244 55 adc~;
#X obj 471 460 bng 15 250 50 0 empty empty empty 17 7 0 10 -262144
-1 -1;
#X obj 471 436 t b;
#X obj 220 461 bng 15 250 50 0 empty empty empty 17 7 0 10 -262144
-1 -1;
#X obj 220 437 t b;
#X connect 2 0 17 0;
#X connect 3 0 22 0;
#X connect 6 0 16 0;
#X connect 9 0 18 0;
#X connect 10 0 15 0;
#X connect 15 0 18 1;
#X connect 16 0 20 0;
#X connect 17 0 19 0;
#X connect 18 0 21 0;
#X connect 19 0 0 0;
#X connect 19 0 29 0;
#X connect 20 0 14 0;
#X connect 20 0 27 0;
#X connect 21 0 13 0;
#X connect 22 0 17 1;
#X connect 22 0 16 1;
#X connect 25 0 24 0;
#X connect 25 1 24 0;
#X connect 27 0 26 0;
#X connect 29 0 28 0;
