#N canvas 2 47 1436 832 10;
#X obj 619 274 tgl 15 1 empty empty empty 17 7 0 10 -262144 -1 -1 1
1;
#X obj 692 237 nbx 5 14 100 1e+37 0 1 empty empty empty 0 -8 0 10 -262144
-1 -1 100 256;
#X obj 619 299 metro \$1;
#X obj 668 277 * 2;
#X obj 732 294 delay;
#X obj 692 402 line;
#X obj 732 315 nbx 5 14 -1e+37 1e+37 0 0 empty empty empty 0 -8 0 10
-262144 -1 -1 100 256;
#X obj 692 195 inlet;
#X obj 625 195 loadbang;
#X obj 692 475 outlet;
#X obj 692 365 prepend 0;
#X obj 732 343 prepend 1;
#X obj 692 425 exp;
#X obj 692 447 expr \$1 + (($f1 * 0.367879) - 0.36787944) * (\$2 -
\$1);
#X connect 0 0 2 0;
#X connect 1 0 3 0;
#X connect 1 0 4 0;
#X connect 1 0 6 0;
#X connect 1 0 10 0;
#X connect 2 0 1 0;
#X connect 3 0 2 1;
#X connect 4 0 6 0;
#X connect 5 0 12 0;
#X connect 6 0 11 0;
#X connect 7 0 1 0;
#X connect 8 0 1 0;
#X connect 10 0 5 0;
#X connect 11 0 5 0;
#X connect 12 0 13 0;
#X connect 13 0 9 0;
