#N canvas 2 47 1436 832 10;
#X obj 76 118 tgl 15 1 empty empty empty 17 7 0 10 -262144 -1 -1 1
1;
#X obj 149 81 nbx 5 14 -1e+37 1e+37 0 1 empty empty empty 0 -8 0 10
-262144 -1 -1 1000 256;
#X obj 76 143 metro \$1;
#X obj 125 121 * 2;
#X obj 189 138 delay;
#X obj 149 246 line;
#X obj 189 159 nbx 5 14 -1e+37 1e+37 0 0 empty empty empty 0 -8 0 10
-262144 -1 -1 1000 256;
#X obj 149 39 inlet;
#X obj 149 279 outlet;
#X obj 149 209 prepend \$2;
#X obj 189 187 prepend \$3;
#X connect 0 0 2 0;
#X connect 1 0 3 0;
#X connect 1 0 4 0;
#X connect 1 0 6 0;
#X connect 1 0 9 0;
#X connect 2 0 1 0;
#X connect 3 0 2 1;
#X connect 4 0 6 0;
#X connect 5 0 8 0;
#X connect 6 0 10 0;
#X connect 7 0 1 0;
#X connect 9 0 5 0;
#X connect 10 0 5 0;
