#N canvas 2 47 1436 832 10;
#X obj 303 247 hsl 400 15 0 1 0 0 empty empty empty -2 -8 0 10 -262144
-1 -1 0 1;
#X obj 120 13 inlet;
#X obj 140 457 outlet;
#X obj 160 142 route \$1;
#X obj 100 378 list prepend \$1;
#X msg 100 401 sendtyped \$1 f \$2;
#X obj 143 94 list split 1;
#X obj 160 120 list trim;
#X obj 160 174 list split 1;
#X obj 200 200 list trim;
#X obj 412 111 loadbang;
#X obj 412 190 list trim;
#X msg 412 138 range;
#X obj 412 168 list append \$2 \$3;
#X obj 100 324 spigot;
#X obj 120 71 t b a b;
#X msg 120 204 0;
#X msg 120 224 1;
#X obj 120 35 spigot;
#X msg 246 10 0;
#X msg 200 10 1;
#X obj 140 430 t b a b;
#X obj 41 55 loadbang;
#X obj 300 61 ctlin \$4;
#X obj 300 85 expr \$2 + ($f1 / 127) * (\$3 - \$2);
#X connect 0 0 14 0;
#X connect 1 0 18 0;
#X connect 3 0 8 0;
#X connect 4 0 5 0;
#X connect 5 0 21 0;
#X connect 6 1 7 0;
#X connect 7 0 3 0;
#X connect 8 1 9 0;
#X connect 9 0 0 0;
#X connect 10 0 12 0;
#X connect 11 0 0 0;
#X connect 12 0 13 0;
#X connect 13 0 11 0;
#X connect 14 0 4 0;
#X connect 15 0 17 0;
#X connect 15 1 6 0;
#X connect 15 2 16 0;
#X connect 16 0 14 1;
#X connect 17 0 14 1;
#X connect 18 0 15 0;
#X connect 19 0 18 1;
#X connect 20 0 18 1;
#X connect 21 0 20 0;
#X connect 21 1 2 0;
#X connect 21 2 19 0;
#X connect 22 0 20 0;
#X connect 22 0 17 0;
#X connect 23 0 24 0;
#X connect 24 0 0 0;
#X coords 0 -1 1 1 405 32 1 300 230;
