#N canvas 2 47 1436 832 10;
#X obj 303 247 hsl 400 15 0 1 0 0 empty empty empty -2 -8 0 10 -262144
-1 -1 1 1;
#X obj 160 212 route \$1;
#X obj 100 448 list prepend \$1;
#X msg 100 471 sendtyped \$1 f \$2;
#X obj 143 164 list split 1;
#X obj 160 190 list trim;
#X obj 160 244 list split 1;
#X obj 200 270 list trim;
#X obj 382 121 loadbang;
#X obj 382 200 list trim;
#X msg 382 148 range;
#X obj 382 178 list append \$2 \$3;
#X obj 100 394 spigot;
#X obj 120 141 t b a b;
#X msg 120 274 0;
#X msg 120 294 1;
#X obj 120 105 spigot;
#X msg 246 90 0;
#X msg 200 90 1;
#X obj 140 500 t b a b;
#X obj 41 125 loadbang;
#X obj 300 61 ctlin \$4;
#X obj 300 85 expr \$2 + ($f1 / 127) * (\$3 - \$2);
#X obj 163 536 s OSC;
#X obj 280 14 inlet;
#X obj 120 64 r OSC;
#X obj 689 231 tgl 15 1 empty empty empty 17 7 0 10 -262144 -1 -1 0
1;
#X msg 689 311 unblock;
#X obj 689 271 route 0 1;
#X obj 689 358 list append \$1;
#X obj 689 380 list trim;
#X msg 760 311 block;
#X obj 689 404 s block;
#X obj 303 368 spigot;
#X msg 303 347 1;
#X obj 416 437 ctlout \$4;
#X obj 479 322 loadbang;
#X msg 479 344 1;
#X obj 416 385 spigot;
#X msg 447 344 0;
#X obj 300 107 t b f b;
#X obj 416 411 expr ($f1 - \$2) / \$3 * 127;
#X connect 0 0 12 0;
#X connect 0 0 34 0;
#X connect 0 0 38 0;
#X connect 1 0 6 0;
#X connect 2 0 3 0;
#X connect 3 0 19 0;
#X connect 4 1 5 0;
#X connect 5 0 1 0;
#X connect 6 1 7 0;
#X connect 7 0 0 0;
#X connect 8 0 10 0;
#X connect 9 0 0 0;
#X connect 10 0 11 0;
#X connect 11 0 9 0;
#X connect 12 0 2 0;
#X connect 13 0 15 0;
#X connect 13 1 4 0;
#X connect 13 2 14 0;
#X connect 14 0 12 1;
#X connect 14 0 33 1;
#X connect 15 0 12 1;
#X connect 15 0 33 1;
#X connect 16 0 13 0;
#X connect 17 0 16 1;
#X connect 18 0 16 1;
#X connect 19 0 18 0;
#X connect 19 1 23 0;
#X connect 19 2 17 0;
#X connect 20 0 18 0;
#X connect 20 0 15 0;
#X connect 21 0 22 0;
#X connect 22 0 40 0;
#X connect 24 0 0 0;
#X connect 25 0 16 0;
#X connect 26 0 28 0;
#X connect 27 0 29 0;
#X connect 28 0 27 0;
#X connect 28 1 31 0;
#X connect 29 0 30 0;
#X connect 30 0 32 0;
#X connect 31 0 29 0;
#X connect 33 0 26 0;
#X connect 34 0 33 0;
#X connect 36 0 37 0;
#X connect 37 0 38 1;
#X connect 38 0 41 0;
#X connect 39 0 38 1;
#X connect 40 0 37 0;
#X connect 40 1 0 0;
#X connect 40 2 39 0;
#X connect 41 0 35 0;
#X coords 0 -1 1 1 405 32 1 300 230;
