#N canvas 2 47 1436 832 10;
#X obj 303 316 hsl 500 15 0 1 0 0 empty empty empty -2 -8 0 10 -262144
-1 -1 16600 1;
#X obj 160 192 route \$1;
#X obj 100 528 list prepend \$1;
#X obj 143 144 list split 1;
#X obj 160 170 list trim;
#X obj 160 224 list split 1;
#X obj 200 250 list trim;
#X obj 342 171 loadbang;
#X obj 342 250 list trim;
#X msg 342 198 range;
#X obj 342 228 list append \$2 \$3;
#X obj 100 474 spigot;
#X obj 120 121 t b a b;
#X msg 120 254 0;
#X msg 120 274 1;
#X obj 120 85 spigot;
#X msg 246 60 0;
#X msg 200 60 1;
#X obj 140 580 t b a b;
#X obj 41 105 loadbang;
#X obj 300 61 ctlin \$4;
#X obj 300 85 expr \$2 + ($f1 / 127) * (\$3 - \$2);
#X obj 540 85 expr \$2 + ($f1 / 127) * (\$3 - \$2);
#X obj 540 61 ctlin \$5;
#X obj 303 331 hsl 500 15 0 1 0 0 empty empty empty -2 -8 0 10 -262144
-1 -1 3534 1;
#X obj 200 272 unpack f f f f;
#X obj 570 165 expr \$2 + ($f1 / 127) * (\$3 - \$2);
#X obj 303 346 hsl 500 15 0 1 0 0 empty empty empty -2 -8 0 10 -262144
-1 -1 4565 1;
#X obj 570 141 ctlin \$6;
#X obj 180 431 c.pak f f f f;
#X obj 303 361 hsl 500 15 0 1 0 0 empty empty empty -2 -8 0 10 -262144
-1 -1 38805 1;
#X obj 620 245 expr \$2 + ($f1 / 127) * (\$3 - \$2);
#X obj 620 221 ctlin \$7;
#X msg 100 551 sendtyped \$1 ffff \$2 \$3 \$4 \$5;
#X obj 120 58 r OSC;
#X obj 163 615 s OSC;
#X obj 789 301 tgl 15 0 empty empty empty 17 7 0 10 -262144 -1 -1 1
1;
#X msg 789 429 unblock;
#X obj 789 389 route 0 1;
#X obj 789 476 list append \$1;
#X obj 789 498 list trim;
#X msg 860 429 block;
#X obj 789 522 s block;
#X obj 473 440 spigot;
#X msg 473 419 1;
#X obj 336 602 ctlout \$4;
#X obj 422 647 ctlout \$5;
#X obj 539 604 ctlout \$6;
#X obj 626 652 ctlout \$7;
#X obj 336 581 expr ($f1 - \$2) / \$3 * 127;
#X obj 336 560 spigot;
#X obj 422 626 expr ($f1 - \$2) / \$3 * 127;
#X obj 422 605 spigot;
#X obj 539 584 expr ($f1 - \$2) / \$3 * 127;
#X obj 539 563 spigot;
#X obj 626 631 expr ($f1 - \$2) / \$3 * 127;
#X obj 626 610 spigot;
#X obj 581 434 loadbang;
#X msg 581 456 1;
#X msg 548 456 0;
#X obj 300 107 t b f b;
#X obj 540 107 t b f b;
#X obj 570 187 t b f b;
#X obj 620 267 t b f b;
#X connect 0 0 29 0;
#X connect 0 0 44 0;
#X connect 0 0 50 0;
#X connect 1 0 5 0;
#X connect 2 0 33 0;
#X connect 3 1 4 0;
#X connect 4 0 1 0;
#X connect 5 1 6 0;
#X connect 6 0 25 0;
#X connect 7 0 9 0;
#X connect 8 0 0 0;
#X connect 8 0 24 0;
#X connect 8 0 27 0;
#X connect 8 0 30 0;
#X connect 9 0 10 0;
#X connect 10 0 8 0;
#X connect 11 0 2 0;
#X connect 12 0 14 0;
#X connect 12 1 3 0;
#X connect 12 2 13 0;
#X connect 13 0 11 1;
#X connect 13 0 43 1;
#X connect 14 0 11 1;
#X connect 14 0 43 1;
#X connect 15 0 12 0;
#X connect 16 0 15 1;
#X connect 17 0 15 1;
#X connect 18 0 17 0;
#X connect 18 1 35 0;
#X connect 18 2 16 0;
#X connect 19 0 17 0;
#X connect 19 0 14 0;
#X connect 20 0 21 0;
#X connect 21 0 60 0;
#X connect 22 0 61 0;
#X connect 23 0 22 0;
#X connect 24 0 29 1;
#X connect 24 0 44 0;
#X connect 24 0 52 0;
#X connect 25 0 0 0;
#X connect 25 1 24 0;
#X connect 25 2 27 0;
#X connect 25 3 30 0;
#X connect 26 0 62 0;
#X connect 27 0 29 2;
#X connect 27 0 44 0;
#X connect 27 0 54 0;
#X connect 28 0 26 0;
#X connect 29 0 11 0;
#X connect 30 0 29 3;
#X connect 30 0 44 0;
#X connect 30 0 56 0;
#X connect 31 0 63 0;
#X connect 32 0 31 0;
#X connect 33 0 18 0;
#X connect 34 0 15 0;
#X connect 36 0 38 0;
#X connect 37 0 39 0;
#X connect 38 0 37 0;
#X connect 38 1 41 0;
#X connect 39 0 40 0;
#X connect 40 0 42 0;
#X connect 41 0 39 0;
#X connect 43 0 36 0;
#X connect 44 0 43 0;
#X connect 49 0 45 0;
#X connect 50 0 49 0;
#X connect 51 0 46 0;
#X connect 52 0 51 0;
#X connect 53 0 47 0;
#X connect 54 0 53 0;
#X connect 55 0 48 0;
#X connect 56 0 55 0;
#X connect 57 0 58 0;
#X connect 58 0 50 1;
#X connect 58 0 52 1;
#X connect 58 0 54 1;
#X connect 58 0 56 1;
#X connect 59 0 50 1;
#X connect 59 0 52 1;
#X connect 59 0 54 1;
#X connect 59 0 56 1;
#X connect 60 0 58 0;
#X connect 60 1 0 0;
#X connect 60 2 59 0;
#X connect 61 0 58 0;
#X connect 61 1 24 0;
#X connect 61 2 59 0;
#X connect 62 0 58 0;
#X connect 62 1 27 0;
#X connect 62 2 59 0;
#X connect 63 0 58 0;
#X connect 63 1 30 0;
#X connect 63 2 59 0;
#X coords 0 -1 1 1 505 76 1 300 300;
