#N canvas 2 47 1436 832 10;
#X obj 175 103 inlet;
#X obj 368 129 r tSecRamp;
#X obj 175 145 unpack f f f f;
#X obj 175 212 line;
#X obj 235 212 line;
#X obj 295 212 line;
#X obj 355 212 line;
#X obj 368 165 * 1000;
#X obj 382 187 / 256;
#X obj 272 243 pack f f f f;
#X obj 368 147 f;
#X obj 175 121 t l b;
#X msg 271 266 sendtyped \$1 ffff;
#X obj 271 283 print;
#X connect 0 0 11 0;
#X connect 1 0 10 0;
#X connect 2 0 3 0;
#X connect 2 1 4 0;
#X connect 2 2 5 0;
#X connect 2 3 6 0;
#X connect 3 0 9 0;
#X connect 4 0 9 1;
#X connect 5 0 9 2;
#X connect 6 0 9 3;
#X connect 7 0 8 0;
#X connect 7 0 3 1;
#X connect 7 0 4 1;
#X connect 7 0 5 1;
#X connect 7 0 6 1;
#X connect 8 0 6 2;
#X connect 8 0 5 2;
#X connect 8 0 4 2;
#X connect 8 0 3 2;
#X connect 9 0 12 0;
#X connect 10 0 7 0;
#X connect 11 0 2 0;
#X connect 11 1 10 0;
#X connect 12 0 13 0;
