#N canvas 2 47 1436 832 10;
#X obj 223 139 inlet;
#X obj 242 166 loadbang;
#X msg 242 198 1;
#X msg 269 198 0;
#X msg 368 198 1;
#X msg 414 198 0;
#X obj 223 249 spigot;
#X obj 345 260 spigot;
#X obj 246 349 outlet;
#X obj 391 344 s ttt;
#X obj 345 165 r ttt;
#X obj 368 304 t b a b;
#X obj 223 304 t b a b;
#X connect 0 0 6 0;
#X connect 1 0 2 0;
#X connect 1 0 4 0;
#X connect 2 0 6 1;
#X connect 3 0 6 1;
#X connect 4 0 7 1;
#X connect 5 0 7 1;
#X connect 6 0 11 0;
#X connect 7 0 12 0;
#X connect 10 0 7 0;
#X connect 11 0 4 0;
#X connect 11 1 9 0;
#X connect 11 2 5 0;
#X connect 12 0 2 0;
#X connect 12 1 8 0;
#X connect 12 2 3 0;
